<svg width="199" height="199" viewBox="0 0 199 199" fill="none" xmlns="http://www.w3.org/2000/svg">
<g clip-path="url(#clip0_2124_603)">
<path fill-rule="evenodd" clip-rule="evenodd" d="M95.0005 0.629124C88.556 2.1549 84.4351 6.06936 79.7939 10.1432C75.3544 14.0398 70.864 18.668 65.3119 20.5524C52.4661 24.9135 36.9393 18.273 26.8705 31.899C18.9778 42.5803 26.0188 60.2522 16.9796 71.8158L11.2775 78.5877C5.04064 86.0318 -2.09615 92.1714 0.578236 104.022C2.29083 111.611 9.90047 118.789 15.7619 125.744C29.1195 141.591 15.2781 159.702 31.7667 172.016C42.6431 180.138 60.4969 173.115 71.6394 181.931C82.6124 190.613 89.9093 201.365 103.748 198.539C110.055 197.251 114.295 193.246 118.862 189.189C134.009 175.73 132.035 178.079 155.42 176.097C163.728 175.392 168.267 172.067 171.869 167.512C179.991 157.239 173.266 138.619 181.722 127.55C182.713 126.252 183.502 125.594 184.518 124.349C192.258 114.863 201.291 107.583 198.474 94.9966C196.956 88.2154 190.754 81.869 186.235 76.7356C183.075 73.1458 180.046 70.1332 178.517 65.5805C173.888 51.807 181.01 37.7724 167.253 27.0242C156.928 18.9562 138.621 25.9095 127.355 17.1253C126.181 16.2098 125.264 15.28 124.087 14.3806C122.906 13.4787 121.721 12.3725 120.587 11.4342C112.981 5.14457 107.008 -2.21306 95.0013 0.629124H95.0005Z" fill="url(#paint0_linear_2124_603)"/>
<path d="M122.177 128.103C124.147 128.418 125.499 126.109 124.197 124.599C118.446 117.948 109.53 113.672 99.4957 113.672C89.4668 113.672 80.5496 117.948 74.8059 124.599C73.5001 126.109 74.8466 128.417 76.821 128.103C83.6333 127.005 91.3378 126.391 99.4957 126.391C107.661 126.391 115.37 127.005 122.177 128.103Z" fill="#FEFEFE"/>
<path d="M123.356 94.3404C122.907 94.0929 122.375 94.5065 122.471 95.0109C123.248 98.9008 127.086 101.857 131.719 101.857C136.357 101.857 140.199 98.9008 140.972 95.0109C141.069 94.5065 140.531 94.0929 140.091 94.3404C137.702 95.6839 134.823 96.4722 131.719 96.4722C128.617 96.4722 125.74 95.6839 123.356 94.3404Z" fill="#FEFEFE"/>
<path d="M58.9104 94.3404C58.4605 94.0929 57.9274 94.5065 58.0283 95.0109C58.8011 98.9008 62.6415 101.857 67.2776 101.857C71.9104 101.857 75.7533 98.9008 76.5245 95.0109C76.6244 94.5065 76.088 94.0929 75.6432 94.3404C73.2577 95.6839 70.38 96.4722 67.2776 96.4722C64.1736 96.4722 61.2925 95.6839 58.9104 94.3404Z" fill="#FEFEFE"/>
<path d="M54.987 83.9109C54.6167 83.9109 54.2472 83.8159 53.9099 83.6159C52.9066 83.0208 52.5761 81.7239 53.1685 80.7203C56.7131 74.7316 63.1864 70.7112 69.386 70.8731C70.5545 70.8926 71.4841 71.8547 71.4638 73.0211C71.4477 74.1764 70.5037 75.0995 69.3512 75.0995L69.1521 75.0987C64.5143 75.0987 59.568 78.2053 56.8055 82.8742C56.4114 83.5404 55.7047 83.9109 54.9861 83.9109H54.987Z" fill="#FEFEFE"/>
<path d="M144.013 83.9108C143.291 83.9108 142.59 83.5404 142.195 82.8741C139.428 78.2053 134.48 75.0986 129.841 75.0986L129.64 75.0995C128.49 75.0995 127.547 74.1755 127.529 73.021C127.511 71.8538 128.44 70.8926 129.61 70.8731C135.698 70.7408 142.28 74.7316 145.831 80.7202C146.425 81.7239 146.092 83.0199 145.087 83.6141C144.753 83.8167 144.381 83.9108 144.013 83.9108Z" fill="#FEFEFE"/>
</g>
<defs>
<linearGradient id="paint0_linear_2124_603" x1="26.4519" y1="31.9414" x2="172.589" y2="167.016" gradientUnits="userSpaceOnUse">
<stop stop-color="#755FFF"/>
<stop offset="1" stop-color="#5D49DE"/>
</linearGradient>
<clipPath id="clip0_2124_603">
<rect width="199" height="199" fill="white"/>
</clipPath>
</defs>
</svg>
