<svg width="31" height="41" viewBox="0 0 31 41" fill="none" xmlns="http://www.w3.org/2000/svg">
<path fill-rule="evenodd" clip-rule="evenodd" d="M1.19869 38.6747V2.326C1.19869 1.86188 1.66013 1.29249 2.14063 1.29249H28.8589C29.3394 1.29249 29.8008 1.86188 29.8008 2.326V38.6747C29.8008 39.1388 29.3394 39.7082 28.8589 39.7082H2.14063C1.66013 39.7082 1.19869 39.1388 1.19869 38.6747ZM0 2.06776V38.9335C0 39.9551 1.10795 41.0005 2.14063 41.0005H28.8589C29.8915 41.0005 31 39.9545 31 38.9335V2.06776C31 1.04617 29.892 0.000732422 28.8589 0.000732422H2.14063C1.10795 0.000732422 0 1.04669 0 2.06776Z" fill="black"/>
<path fill-rule="evenodd" clip-rule="evenodd" d="M4.96692 4.99601H26.0335V15.16H4.96692V4.99601ZM3.68213 4.479V15.6765C3.68213 15.9913 3.91826 16.3657 4.19615 16.3657H26.8038C27.0811 16.3657 27.3178 15.9913 27.3178 15.6765V4.479C27.3178 3.86449 26.8202 3.70374 26.2047 3.70374H4.79575C4.18017 3.70374 3.68264 3.86449 3.68264 4.479H3.68213Z" fill="black"/>
<path fill-rule="evenodd" clip-rule="evenodd" d="M21.837 27.1323H26.0332V36.004H21.837V27.1323ZM20.5528 26.7013V36.5205C20.5528 37.135 21.0503 37.2957 21.6659 37.2957H26.2044C26.82 37.2957 27.3175 37.135 27.3175 36.5205V26.5287C27.3175 26.1122 27.0468 25.8395 26.6323 25.8395H21.2374C20.727 25.8395 20.5522 26.1869 20.5522 26.7008L20.5528 26.7013Z" fill="black"/>
<path fill-rule="evenodd" clip-rule="evenodd" d="M4.96692 27.1323H9.16312V29.0272H4.96692V27.1323ZM3.68213 26.5292V29.6303C3.68213 30.1437 4.02756 30.3195 4.53849 30.3195H9.67662C10.1427 30.3195 10.4474 30.013 10.4474 29.5442V26.7019C10.4474 26.188 10.2726 25.8406 9.76221 25.8406H4.36732C3.95332 25.8406 3.68213 26.1128 3.68213 26.5298V26.5292Z" fill="black"/>
<path fill-rule="evenodd" clip-rule="evenodd" d="M4.96692 20.1554H9.16312V22.0503H4.96692V20.1554ZM3.68213 19.6384V22.6534C3.68213 23.0698 3.9528 23.3426 4.36732 23.3426H9.76221C10.1762 23.3426 10.4474 23.0703 10.4474 22.6534V19.6384C10.4474 19.1095 10.0396 18.8632 9.50546 18.8632H4.62407C4.06674 18.8632 3.68213 19.081 3.68213 19.6384Z" fill="black"/>
<path fill-rule="evenodd" clip-rule="evenodd" d="M21.837 20.1554H26.0332V22.0503H21.837V20.1554ZM20.5527 19.6384V22.6534C20.5527 23.0698 20.8234 23.3426 21.2379 23.3426H26.6328C27.0468 23.3426 27.318 23.0703 27.318 22.6534V19.6384C27.318 19.081 26.9334 18.8632 26.3761 18.8632H21.4947C20.96 18.8632 20.5527 19.1095 20.5527 19.6384Z" fill="black"/>
<path fill-rule="evenodd" clip-rule="evenodd" d="M13.3593 20.1554H17.6411V22.0503H13.3593V20.1554ZM12.1606 19.5523C12.1606 20.1311 12.0224 22.8022 12.2869 23.1289C12.3421 23.1969 12.5534 23.3426 12.6741 23.3426H18.3262C18.4598 23.3426 18.6062 23.2347 18.6712 23.1725C18.9991 22.8619 18.8403 20.4443 18.8403 19.5523C18.8403 18.9674 18.3891 18.8632 17.8127 18.8632H13.1886C12.6117 18.8632 12.1611 18.9674 12.1611 19.5523H12.1606Z" fill="black"/>
<path fill-rule="evenodd" clip-rule="evenodd" d="M4.96695 34.0231H9.16315V36.004H4.96695V34.0231ZM3.68216 33.5061V36.5205C3.68216 37.135 4.17968 37.2958 4.79526 37.2958H9.3338C9.94939 37.2958 10.4469 37.135 10.4469 36.5205V33.5061C10.4469 33.0897 10.1762 32.8169 9.76172 32.8169H4.19566C3.91829 32.8169 3.68164 33.1913 3.68164 33.5061H3.68216Z" fill="black"/>
<path fill-rule="evenodd" clip-rule="evenodd" d="M13.3593 27.1322H17.6411V29.0271H13.3593V27.1322ZM12.1606 26.357V29.8024C12.1606 30.0814 12.5329 30.3194 12.8458 30.3194H18.1551C18.4681 30.3194 18.8403 30.0819 18.8403 29.8024V26.357C18.8403 26.078 18.4681 25.84 18.1551 25.84H12.8458C12.5329 25.84 12.1606 26.0775 12.1606 26.357Z" fill="black"/>
<path fill-rule="evenodd" clip-rule="evenodd" d="M13.3594 34.0231H17.6411V36.004H13.3594V34.0231ZM12.1607 33.42V36.6071C12.1607 37.1921 12.6118 37.2963 13.1882 37.2963H17.8123C18.3892 37.2963 18.8398 37.1921 18.8398 36.6071V33.42C18.8398 33.0181 18.6403 32.8169 18.2402 32.8169H12.7598C12.3602 32.8169 12.1602 33.0176 12.1602 33.42H12.1607Z" fill="black"/>
</svg>
