<svg width="39" height="35" viewBox="0 0 39 35" fill="none" xmlns="http://www.w3.org/2000/svg">
<path fill-rule="evenodd" clip-rule="evenodd" d="M2.97092 17.5543V34.2447C2.97092 34.7352 3.45991 34.9999 3.96112 34.9999H15.5391C16.1727 34.9999 16.5293 34.6416 16.5293 34.0182V25.9372H22.6231V34.0182C22.6231 34.4261 23 34.7734 23.2324 34.7734H35.4198C35.643 34.7734 36.0291 34.3906 36.0291 34.1693V18.6117C36.0291 17.9228 35.0982 17.5956 34.6415 18.1422C34.5181 18.2896 34.4296 18.5793 34.4296 18.8384V33.1877H24.2226V25.2579C24.2226 24.5565 23.7923 24.2761 23.08 24.2761C22.0197 24.2761 15.8563 24.1287 15.3093 24.4259C15.1805 24.4959 14.9296 24.7867 14.9296 24.9557V33.414H4.57023V17.781C4.57023 16.4474 2.9707 16.6417 2.9707 17.5545L2.97092 17.5543Z" fill="#010002"/>
<path fill-rule="evenodd" clip-rule="evenodd" d="M0 15.2889C0 15.8208 0.301288 16.1195 0.837808 16.1195C1.3183 16.1195 5.12975 12.9683 5.5505 12.6356C5.94488 12.3237 6.3107 12.038 6.70399 11.7401L19.4237 1.84588L22.9038 4.58839C23.3206 4.92277 23.6679 5.2109 24.0804 5.53664L33.3808 13.0059C33.7783 13.328 34.1186 13.6057 34.5158 13.9196C35.053 14.3439 37.7164 16.6482 38.162 16.6482C38.6985 16.6482 38.9998 16.3495 38.9998 15.8176C38.9998 15.3595 38.3203 14.9121 38.0196 14.6748C37.8086 14.5081 37.6425 14.383 37.4243 14.2079C37.1943 14.0233 37.0185 13.8673 36.8018 13.6922L31.916 9.77576C29.5123 7.9145 27.0119 5.7664 24.6367 3.92762C24.0573 3.47911 20.0252 0.166403 19.7169 0.0382268C19.0697 -0.230879 17.8811 0.988204 17.1065 1.58737C16.2506 2.24965 15.4703 2.85682 14.6356 3.5178C14.4243 3.6851 14.2477 3.8029 14.0332 3.97777L9.69158 7.3765C9.47946 7.54964 9.30396 7.66139 9.08813 7.8356C8.86293 8.01738 8.66934 8.17993 8.45591 8.34161C8.03515 8.66043 7.64077 8.96174 7.21892 9.3052L2.27536 13.1643C1.80315 13.5378 0.000218009 14.7254 0.000218009 15.2889H0Z" fill="#010002"/>
</svg>
