<svg width="39" height="42" viewBox="0 0 39 42" fill="none" xmlns="http://www.w3.org/2000/svg">
<path fill-rule="evenodd" clip-rule="evenodd" d="M0.968821 40.4353C0.968821 39.9089 1.19944 39.694 1.79589 39.694H37.204C38.4062 39.694 38.2187 41.0941 37.2869 41.0941H1.71357C1.31339 41.0941 0.968821 40.8602 0.968821 40.4353ZM31.6615 17.2124C31.6615 16.9595 31.9041 16.8829 32.1576 16.8829C33.006 16.8829 34.4579 16.7891 35.2184 16.9654C35.2615 17.15 35.3013 17.1548 35.3013 17.3774V38.7887H31.661V17.2129L31.6615 17.2124ZM24.5466 26.2712C24.5466 25.938 24.8525 26.014 25.2036 26.0194L28.1041 26.0243C28.3145 26.9241 28.1869 37.0065 28.1869 38.7887H24.5466V26.2712ZM17.4317 23.2245C17.4317 23.0345 17.4895 22.9775 17.6798 22.9775H20.7406C20.9314 22.9775 20.9886 23.0351 20.9886 23.2245V38.7887H17.4312V23.2245H17.4317ZM10.3169 28.9066C10.3169 28.7166 10.3746 28.6597 10.5649 28.6597H13.6257C13.8165 28.6597 13.8738 28.7172 13.8738 28.9066V38.7887H10.3163V28.9066H10.3169ZM3.20197 24.6241C3.20197 24.4314 3.33936 24.2947 3.53291 24.2947C4.39705 24.2947 5.99667 24.2002 6.75941 24.3772V38.7887H3.20197V24.6246V24.6241ZM30.751 17.2124V38.7882H29.0963V26.3532C29.0963 25.7736 28.6542 25.118 28.1035 25.118H24.629C24.1421 25.118 23.6361 25.6102 23.6361 26.2707V38.7882H21.9814V23.4709C21.9814 22.6964 21.5682 22.0707 20.9058 22.0707H17.5141C17.0272 22.0707 16.5213 22.5629 16.5213 23.2234V38.7876H14.8666V29.1524C14.8666 28.5734 14.7221 28.2619 14.3961 27.9742C13.8579 27.4999 10.518 27.5819 9.95266 27.8847C9.68006 28.0307 9.40691 28.3704 9.40691 28.7411V38.7876H7.75222V25.0349C7.75222 24.2203 7.44691 23.3878 6.59422 23.3878H3.53345C2.89393 23.3878 2.29257 23.8654 2.29257 24.4586V38.7876C1.58654 38.7876 0.993901 38.7106 0.450334 39.2598C-0.535391 40.2546 0.204448 41.9994 1.6307 41.9994H37.3698C37.7809 41.9994 38.259 41.7611 38.4934 41.5533C39.5266 40.6345 38.8794 38.7882 37.4526 38.7882H36.2118V17.2124C36.2118 16.4629 35.6333 15.9772 34.888 15.9772H32.1582C31.3251 15.9772 30.7516 16.3913 30.7516 17.2124H30.751Z" fill="black"/>
<path fill-rule="evenodd" clip-rule="evenodd" d="M26.4491 18.1181C25.9693 18.1181 25.278 17.6585 24.6565 17.3497L22.1458 16.0607C21.8443 15.9044 21.6366 15.7628 21.292 15.5929C18.813 14.3691 19.7126 14.3924 18.0737 16.0406L13.1909 21.0623C12.3066 21.9371 12.4031 22.1428 10.943 21.2832L5.18731 18.0367C4.70916 17.7795 3.78287 17.3421 4.25556 16.5367C4.92779 15.3916 6.70787 17.036 8.49614 17.9548L10.9784 19.3544C11.8235 19.8103 11.944 20.1397 12.8937 18.955L18.0312 13.6104C18.9487 12.697 18.9384 12.2916 21.0363 13.542C21.5864 13.8698 22.0897 14.0902 22.6719 14.3843C23.3714 14.7376 25.6275 16.0602 26.1176 16.0602C26.3346 16.0602 26.5363 15.7264 26.7909 15.4127L30.483 10.9354C30.7545 10.6044 31.0168 10.3705 31.0811 10.1306C31.2905 10.2701 31.5456 10.5018 31.7692 10.6809C32.0554 10.9099 32.2037 10.9837 32.4049 11.2833L30.2802 13.8622C30.0185 14.1857 29.8048 14.4576 29.5311 14.7631L28.0776 16.5275C27.6736 17.0262 26.9201 18.1181 26.4491 18.1181ZM29.9237 7.65964C29.9237 6.95846 30.9819 6.9894 31.8379 6.84775C35.3113 6.27248 35.3997 5.95392 35.3833 7.66018C35.3779 8.21374 35.4553 8.44222 35.4689 8.89267L35.4662 11.2833C35.4662 11.7527 35.2078 11.8596 34.8043 11.8596C34.565 11.8596 32.5652 10.1365 32.2391 9.88365C31.827 9.56399 31.442 9.22046 31.0179 8.87584C30.4449 8.41129 29.9231 8.12745 29.9231 7.65964H29.9237ZM29.0137 7.57715C29.0137 8.54642 29.5126 8.94857 30.4203 9.55368L28.1866 12.271C27.8301 12.728 27.4408 13.148 27.0635 13.6234C26.8634 13.8752 26.7179 14.0777 26.5107 14.3089C26.2828 14.5629 26.1438 14.8065 25.8701 14.9889C25.4699 14.8961 25.2077 14.6643 24.8784 14.4939L21.871 12.9581C19.0387 11.5617 19.3004 11.0548 16.9969 13.3211C16.7036 13.6099 16.5777 13.8253 16.2952 14.1048L11.8061 18.777C10.7309 18.0601 7.40301 16.3055 6.01165 15.486C3.96823 14.2823 2.29228 16.8862 3.75833 18.2229C4.17923 18.6066 9.4715 21.4851 10.6829 22.2004C12.5933 23.3286 13.0464 22.5222 14.3085 21.268L19.5823 15.7297C20.0789 16.0607 20.6378 16.2946 21.2102 16.5796L24.4635 18.2826C25.4715 18.784 26.4965 19.603 27.6294 18.4698C27.9162 18.1827 28.1954 17.8473 28.4342 17.5418L33.1496 11.8596C33.4326 12.0083 33.613 12.1701 33.8671 12.3806C34.7667 13.1274 36.0495 12.7866 36.3816 11.6176C36.4639 11.3278 36.3674 7.10825 36.2633 6.61927C35.8936 4.88587 33.9151 5.57131 33.0907 5.70644C32.4556 5.81064 30.1723 6.11673 29.7705 6.35443C29.3741 6.58888 29.0132 6.96498 29.0132 7.57715H29.0137Z" fill="black"/>
<path fill-rule="evenodd" clip-rule="evenodd" d="M9.82082 0.906782C13.3597 0.906782 16.3562 3.98284 16.3562 6.91833C16.3562 8.98821 16.0312 10.4964 14.4747 12.0453C13.4819 13.0335 11.8064 13.9182 10.317 13.9182C8.02983 13.9182 6.71154 13.4932 5.08302 11.8814C4.61578 11.4184 4.08421 10.6028 3.81488 9.93198C2.78717 7.37529 3.364 4.7448 5.29129 2.82145C6.48473 1.63075 8.1307 0.906782 9.82082 0.906782ZM2.375 7.41274C2.375 10.3173 4.26958 13.141 6.73498 14.19C9.64309 15.4274 12.8091 14.8777 15.0973 12.7475L16.3098 11.1547C18.2862 7.899 17.2557 3.52208 14.1574 1.36645C9.08207 -2.16439 2.375 1.60904 2.375 7.41274Z" fill="black"/>
<path fill-rule="evenodd" clip-rule="evenodd" d="M9.82082 11.8597C5.96079 11.8597 3.94028 7.10508 6.72626 4.3324C8.05219 3.01254 10.094 2.64892 11.7803 3.48632C12.4449 3.81628 12.5348 3.89932 13.0277 4.38558C15.7461 7.06926 13.8003 11.8597 9.82137 11.8597H9.82082ZM4.52637 7.08337C4.52637 8.84879 4.88347 10.0628 6.11672 11.2649C9.25218 14.3225 15.1987 12.5875 15.1987 7.16586C15.1987 4.66128 12.7611 2.14258 10.2352 2.14258C9.12187 2.14258 8.50198 2.13824 7.44919 2.66303C6.86856 2.9523 6.4711 3.29746 6.03658 3.72728C5.30819 4.44799 4.52691 5.67939 4.52691 7.08337H4.52637Z" fill="black"/>
<path fill-rule="evenodd" clip-rule="evenodd" d="M9.40738 4.77742V5.18934C8.11853 5.2181 7.70199 7.00197 8.80657 7.68144C9.29507 7.9821 9.67126 7.90667 10.4002 7.90667C11.2076 9.10713 9.62437 8.81244 8.41457 8.81244C8.24883 9.05883 8.1665 8.97959 8.1665 9.3063C8.1665 9.85986 9.065 9.71822 9.40738 9.71822C9.40738 10.4954 9.45754 10.5572 10.2345 10.3771C10.3026 10.0867 10.3173 10.1063 10.3173 9.71822C11.7125 9.60262 12.0091 7.6288 10.7219 7.09152C10.1848 6.86738 9.0759 7.25976 9.0759 6.50648C9.0759 6.3084 9.21002 6.26444 9.32397 6.09457C10.0529 6.09457 11.5577 6.32196 11.5577 5.60071C11.5577 5.01839 10.8118 5.10685 10.3168 5.10685C10.3168 3.95468 9.40684 4.37962 9.40684 4.77742H9.40738Z" fill="black"/>
</svg>
