<svg width="39" height="39" viewBox="0 0 39 39" fill="none" xmlns="http://www.w3.org/2000/svg">
<path fill-rule="evenodd" clip-rule="evenodd" d="M9.03669 35.5757C9.03669 34.9618 9.39263 34.4342 9.98781 34.4342H28.9178C30.2013 34.4342 29.8689 36.4917 29.8689 37.9539H9.03669V35.5757ZM12.2709 31.0101C12.2709 30.6651 12.3508 30.479 12.461 30.2491C13.5102 30.0047 24.0076 30.1539 25.9688 30.1539C26.4127 30.1539 26.6346 30.3757 26.6346 30.8197V33.3881H12.2709V31.0101ZM1.2364 23.0197H12.6514C12.4179 24.0215 11.3644 25.0751 10.6152 25.6446C8.51612 27.2394 5.45862 27.1614 3.35437 25.6581C2.23237 24.8566 1.82852 24.139 1.2364 23.0197ZM7.03909 9.03697C7.0693 9.40069 7.97846 11.8056 8.12127 12.2352C8.4972 13.3656 8.89297 14.3473 9.2631 15.469C9.4616 16.0704 11.4774 21.5836 11.51 21.9735H2.37792C2.96379 20.7523 5.58052 12.6412 6.37312 10.654C6.59023 10.1101 6.76889 9.23485 7.03909 9.03697ZM26.3493 17.6929H37.669C37.6056 18.4576 36.2662 19.7921 35.7145 20.2092C33.0845 22.197 29.1181 21.641 27.2033 19.1219L26.5178 18.0951C26.3915 17.874 26.4289 17.8713 26.3493 17.6929ZM32.0567 3.61495L36.6227 16.6466H27.4906C27.5262 16.2208 29.5464 10.5683 29.7188 10.1234L31.8753 4.00445C31.902 3.93015 31.9123 3.89277 31.9554 3.79909C32.0444 3.60518 31.9872 3.71533 32.0567 3.61495ZM18.9295 0.475913V4.18569C18.4647 4.18569 17.1127 4.53675 16.5445 4.65438L0.942242 7.98198C0.360035 8.09701 -0.000488281 8.11944 -0.000488281 8.65647C-0.000488281 9.32334 0.911117 9.04338 1.33114 8.94192L6.27777 7.89548C6.02236 8.42778 5.8643 9.02751 5.64857 9.64433L1.33129 21.9735C0.864126 21.9735 -0.000488281 21.9368 -0.000488281 22.3539C-0.000488281 23.6115 1.42177 25.3513 2.35367 26.1826C5.62522 29.1012 11.4243 28.1032 13.4899 23.7635C14.189 22.2949 14.1797 21.9735 12.6511 21.9735L12.021 20.2255C11.7964 19.5454 11.6031 19.0747 11.3786 18.3946C10.9095 16.973 7.7937 8.40108 7.60924 7.61003C10.3968 6.96071 13.4515 6.42825 16.0754 5.80289C16.5367 5.69289 17.0005 5.61264 17.4834 5.49837C17.8143 5.42041 18.5381 5.24068 18.9292 5.23199V29.1076H12.7461C11.9613 29.1076 11.2239 29.9015 11.2239 31.0102V33.3882C10.2817 33.3882 9.17751 33.2544 8.50102 34.0897C7.76242 35.0012 7.9896 36.8464 7.9896 38.3346C7.9896 38.655 8.15789 39.0004 8.46531 39.0004H30.4392C31.1779 39.0004 30.9149 36.92 30.9149 35.7663C30.9149 33.299 29.1292 33.3882 27.6807 33.3882C27.6807 32.2173 27.8708 30.416 27.2778 29.7007C27.0837 29.4667 26.5459 29.1077 26.1589 29.1077H19.9757V4.94684L25.643 3.76522C26.6054 3.55117 27.5611 3.37099 28.4607 3.15832L31.2954 2.56881C31.069 3.04039 30.8846 3.76629 30.6697 4.32117C29.6527 6.94698 27.952 11.9433 26.9544 14.8741L26.349 16.6468H25.3026C24.9642 17.1519 24.9879 17.0949 25.2463 17.7482C25.414 18.1718 25.5362 18.5015 25.7582 18.8546C29.4211 24.6761 36.8287 22.647 38.6075 18.2515C39.0361 17.1927 39.0756 17.4725 38.9053 16.742C38.4445 16.6347 38.2435 16.6468 37.6687 16.6468C37.6223 16.0899 34.2928 6.95857 33.9231 5.83859C33.6807 5.10353 32.7343 2.72595 32.7223 2.18831C33.1784 2.18831 36.8804 1.3762 37.5548 1.21799C38.1876 1.06985 38.9053 1.09624 38.9053 0.476065C38.9053 -0.396151 37.2347 0.23547 36.2187 0.452875C35.3898 0.630156 34.65 0.782112 33.8548 0.94261L19.9755 3.90024V0.285664C19.691 0.0951093 19.7826 0.000366211 19.4047 0.000366211C19.1829 0.000366211 18.929 0.254235 18.929 0.476065L18.9295 0.475913Z" fill="black"/>
</svg>
