<svg width="39" height="30" viewBox="0 0 39 30" fill="none" xmlns="http://www.w3.org/2000/svg">
<path fill-rule="evenodd" clip-rule="evenodd" d="M4.49367 6.08611C6.5192 7.13176 7.02685 7.29907 9.52687 7.78968C13.9339 8.65473 21.7347 8.54024 25.9006 6.68291L27.0406 6.08611C27.0406 6.83944 27.1407 7.07396 26.72 7.48243C25.8456 8.33144 24.2804 8.81541 23.0236 9.07814C18.642 9.99325 12.8863 10.1509 8.57647 9.08892C7.276 8.7684 5.77713 8.40805 4.85365 7.51893C4.38965 7.0723 4.49424 6.90941 4.49424 6.08611H4.49367ZM-0.000409665 13.5179V10.3901C0.124875 9.35165 0.617509 8.8392 2.28447 8.01811C2.63595 7.84499 3.00188 7.73603 3.35109 7.57258C3.33125 7.34 3.27484 7.30848 3.27484 7.05239V4.00533C3.27484 2.96079 4.50671 2.17538 5.28053 1.80037C6.33439 1.28986 7.23632 1.03211 8.46961 0.750026C9.69581 0.469325 10.8594 0.360363 12.1644 0.193049C13.1105 0.0716424 14.4833 0.141334 15.2018 0.0351374C15.7284 -0.0428505 17.7534 0.0251815 18.2486 0.0979149C18.8798 0.19056 19.6211 0.204941 20.199 0.275738C22.4677 0.55395 24.9771 0.924531 26.8439 2.11647C27.8938 2.78684 28.3354 3.44171 28.3354 4.7487C28.3354 5.7808 28.4924 7.24183 27.8907 8.03083C25.8977 10.6437 18.6786 11.0657 15.767 11.0657C12.8568 11.0657 9.5144 10.7029 7.3018 10.035C3.85081 8.99323 4.88256 8.26286 3.1762 8.96309C2.64842 9.17963 2.09173 9.43849 1.66117 9.78888C0.487406 10.7444 2.12262 11.6116 3.03419 11.9692C6.57957 13.36 12.6236 13.6991 16.6281 13.1695C17.1587 13.0992 18.89 12.5735 18.89 13.5926C18.89 14.3755 16.8081 14.3896 16.2029 14.4637C15.155 14.5923 13.9169 14.633 12.7962 14.633C9.05408 14.633 5.57106 14.3155 2.2394 12.9676C1.85703 12.813 1.56366 12.5821 1.21814 12.4034C1.21814 13.1567 1.11808 13.3913 1.53872 13.7997C2.95284 15.1728 5.99992 15.5987 7.94409 15.8739C9.87183 16.1468 13.7551 16.2793 15.7233 16.0022C16.4195 15.9043 17.3665 15.7303 17.3665 16.4906C17.3665 17.0144 17.0694 17.1239 16.5329 17.1634C14.6703 17.3012 13.8421 17.3825 11.9583 17.3825C8.29925 17.3825 4.26436 16.4165 4.11243 16.4165C4.09061 16.4165 1.49592 17.6582 5.7587 19.1206C6.79329 19.4757 8.01269 19.7556 9.21196 19.9132C9.82648 19.994 10.4316 20.0894 11.1176 20.1347L15.2335 20.2807C15.8495 20.2807 16.9093 20.1563 16.9093 20.7265C16.9093 21.2575 16.786 21.4348 16.2299 21.4754C13.7035 21.661 10.6082 21.4638 8.37097 21.0307C6.043 20.58 5.3324 20.3767 3.27456 19.3145C3.27456 20.1278 3.15693 20.3089 3.62263 20.7583C5.0104 22.0974 8.34943 22.5772 10.3443 22.8212C11.3455 22.9434 12.4858 23.0302 13.6338 23.0302L17.0751 23.0117C17.6171 23.2036 17.6896 23.9713 17.0907 24.1732C16.8464 24.2556 16.5813 24.2108 16.2979 24.2172C15.9209 24.2258 15.9189 24.2847 15.5405 24.2957C12.9606 24.371 10.2582 24.0842 8.05209 23.7194C6.74199 23.5029 3.60024 22.7219 2.8936 21.692C2.13424 22.0839 0.553733 22.7327 1.57557 23.7211C2.58153 24.6942 4.65184 25.1492 6.01012 25.4141C9.57988 26.1107 13.9543 26.171 17.6752 25.6348C19.091 25.4307 19.0374 26.3104 18.6315 26.6423C18.1919 27.0018 15.4549 27.1052 14.765 27.1807C14.2233 27.2399 13.5745 27.1417 13.0351 27.2026C12.4064 27.2737 12.0824 27.1899 11.3486 27.1915L9.67341 27.1166C7.12408 27.053 4.63143 26.517 2.37064 25.6207C1.98572 25.468 1.62233 25.1417 1.21757 25.0363C1.21757 25.8812 1.14217 26.0521 1.61411 26.5076C2.51577 27.3776 4.30008 27.7839 5.55859 28.0845C9.07959 28.9252 13.4617 28.8428 17.1378 28.4554C18.9031 28.2692 20.2568 27.585 20.5768 28.3771C20.6846 28.6437 20.5627 28.9473 20.3107 29.0986C19.8943 29.3489 18.0981 29.5724 17.5907 29.6407C17.0941 29.7076 13.0175 30.0704 12.4498 29.9872C11.5292 29.8525 10.2511 29.9338 9.29643 29.863C7.20911 29.7081 -0.000976562 28.7363 -0.000976562 26.0029V22.8073C-0.000976562 22.028 1.42761 20.8864 2.13169 20.7263C1.92818 20.312 2.05601 18.6081 2.05544 17.9765C2.05459 16.5431 2.05771 16.891 2.74111 15.8954C1.88764 15.7016 -0.000976562 14.5619 -0.000976562 13.5174L-0.000409665 13.5179ZM4.49367 4.15384C4.49367 2.96134 8.21309 2.05259 9.22273 1.85624C13.7491 0.97597 22.4289 0.870603 26.2197 3.17125C27.9442 4.21772 26.5327 5.13892 25.2246 5.65192C20.434 7.5311 11.1527 7.54078 6.36472 5.67294C5.79413 5.45032 4.49395 4.79572 4.49395 4.15384H4.49367Z" fill="black"/>
<path fill-rule="evenodd" clip-rule="evenodd" d="M28.336 11.0652C30.5457 11.0652 32.3521 11.5251 34.0055 12.7425C34.8706 13.3797 35.6081 14.0863 36.2124 14.974C36.8451 15.9035 37.3131 16.9356 37.548 18.0557C39.0804 25.3666 31.4156 30.8988 25.0094 27.9853C22.0777 26.652 20.1789 24.2488 19.7044 21.1215C19.3067 18.4995 20.2489 15.6422 22.1089 13.8333C22.5309 13.4229 22.7716 13.1668 23.2651 12.8059C23.7597 12.4441 24.1245 12.2281 24.6795 11.9563C25.548 11.5307 27.0375 11.0647 28.336 11.0647V11.0652ZM39.0001 19.2736V20.3157C38.8953 22.2587 38.2124 24.183 37.0514 25.8116C36.5129 26.5671 36.1056 26.8937 35.5146 27.4336C34.2303 28.6064 32.6257 29.3567 30.8802 29.7491C29.3561 30.0918 27.8048 30.0633 26.3544 29.7204C24.5431 29.292 22.2716 28.1529 21.1108 26.7355C20.8348 26.3987 20.6792 26.3583 20.2455 25.722C18.9291 23.7914 18.3574 22.1694 18.3574 19.6121C18.3574 16.9594 19.6624 14.4541 21.4612 12.6814C21.6942 12.4519 21.9014 12.3017 22.1491 12.089C22.3858 11.8858 22.6219 11.7342 22.8971 11.5556C27.0687 8.84701 32.5576 9.41118 35.8972 12.6806C36.3587 13.1325 36.6946 13.5401 37.086 14.0476C37.4562 14.528 37.7252 15.0473 38.0103 15.5982C38.6113 16.7595 38.9318 18.01 39.0001 19.2733V19.2736Z" fill="black"/>
<path fill-rule="evenodd" clip-rule="evenodd" d="M29.7833 24.4426H29.5548V21.0239C30.1835 21.0748 31.3831 21.5831 31.3831 22.7333C31.3831 23.6274 30.6702 24.4426 29.7836 24.4426H29.7833ZM26.7365 17.4566C26.7365 16.6109 27.4749 15.9146 28.336 15.8961V19.2404C27.6231 19.0783 26.7365 18.3676 26.7365 17.4566ZM28.336 13.6665V14.6328C27.6268 14.6482 26.7966 15.0661 26.4108 15.4301C25.6064 16.1892 25.5176 16.6013 25.5176 17.6798C25.5176 18.4771 25.991 19.2122 26.4536 19.5908C26.8836 19.9426 27.7322 20.4412 28.336 20.5784V24.3685C26.2436 24.3685 26.6682 22.2133 25.8986 22.2133C24.3963 22.2133 25.4414 24.0823 26.1449 24.7228C26.5715 25.1113 27.563 25.6152 28.3363 25.6318C28.3363 26.5735 28.1413 27.4897 28.9457 27.4897C29.7422 27.4897 29.5551 26.5992 29.5551 25.7059C32.637 25.7059 33.5889 22.0474 31.6461 20.6187C29.1413 18.7764 29.5551 21.6879 29.5551 15.8961C31.429 15.8961 30.9324 17.4566 31.8403 17.4566C33.2807 17.4566 32.0511 14.6325 29.5551 14.6325C29.5551 13.8875 29.7181 13.0719 28.9457 13.0719C28.5772 13.0719 28.3363 13.307 28.3363 13.6665H28.336Z" fill="black"/>
</svg>
