<svg width="39" height="39" viewBox="0 0 39 39" fill="none" xmlns="http://www.w3.org/2000/svg">
<path fill-rule="evenodd" clip-rule="evenodd" d="M2.63391 31.8813C2.18341 31.8813 1.71948 31.6988 1.46617 31.4683C1.18119 31.2084 0.965773 30.6508 0.965773 30.3872C0.965773 29.5207 1.70269 28.9905 2.17286 28.5194C3.29503 27.396 12.8884 17.8865 13.1686 17.4677L15.3429 19.5977C15.0838 19.9954 5.56623 29.4285 4.4551 30.5409C4.06649 30.9299 3.28543 31.8813 2.63343 31.8813H2.63391ZM12.8841 15.8199L14.2029 14.5481L18.2828 18.5891C18.1701 18.9518 17.9374 19.0478 17.6999 19.2793L17.0321 19.9291L12.8841 15.8203V15.8199ZM22.914 24.3232C22.0423 24.3232 21.7726 23.7161 21.7726 23.0048C21.7726 22.3684 23.2969 21.0837 23.7699 20.6102L29.257 15.1172C29.9757 14.3978 29.9569 14.2162 30.903 14.2162C31.3958 14.2162 31.8688 14.7973 31.8688 15.2709C31.8688 16.1287 30.7524 16.9596 29.9152 17.7976L24.2967 23.4222C23.9436 23.7757 23.5588 24.3232 22.914 24.3232ZM11.8305 10.7227L12.2541 10.4004C12.2671 10.3879 12.2858 10.3697 12.2988 10.3572C12.4494 10.2093 12.5204 10.119 12.6854 9.95327L18.3491 4.37388L28.5114 14.5025L22.0581 21.0064L11.831 10.7236L11.8305 10.7227ZM8.5163 9.99793C8.5163 9.26599 9.81358 8.21562 10.5136 7.51538L16.1321 1.89084C16.597 1.42546 17.3535 0.425036 18.2886 1.26985C19.3647 2.24193 18.0578 3.21449 17.6683 3.60448L11.3032 9.97632C10.8892 10.3908 9.97958 11.6712 8.97351 10.8586C8.78113 10.7035 8.51582 10.2981 8.51582 9.99841L8.5163 9.99793ZM7.55053 9.91004C7.55053 10.3798 7.74436 10.7841 7.93578 11.1059C8.16943 11.4983 8.41219 11.6746 8.83294 11.8777C9.89418 12.3897 10.4891 11.8883 11.2375 11.4921L13.5418 13.7556C12.6029 15.1225 10.7136 15.5312 12.5545 16.7655C12.269 17.1925 2.36812 27.007 1.20757 28.1688C0.712938 28.6639 0.000488281 29.2811 0.000488281 30.3002C0.000488281 31.6685 1.162 32.8491 2.5466 32.8491C3.94607 32.8491 5.11765 31.2862 6.29979 30.1028C7.4042 28.9972 8.44385 27.9565 9.54827 26.8509L14.4207 21.9732C14.8386 21.5549 15.6489 20.6495 16.0668 20.3691C16.4991 20.6591 16.5106 21.0722 17.1204 21.0722C17.4351 21.0722 18.6748 19.5675 19.0519 19.3144L19.7207 19.9632C19.7337 19.9762 19.7519 19.9944 19.7648 20.0069C19.8003 20.0425 19.8426 20.0809 19.8982 20.1371L20.0709 20.3157C20.0839 20.3282 20.1021 20.3465 20.1155 20.359C20.1343 20.3763 20.1889 20.4252 20.2081 20.4421L21.3351 21.599C21.1384 22.3368 20.8083 21.8483 20.8083 23.3569C20.8083 24.7232 22.8075 26.2601 24.5179 24.522L31.936 17.0955C32.4296 16.6032 32.836 16.2459 32.836 15.3598C32.836 13.9348 31.6121 13.0659 30.3772 13.2436C29.8447 13.3205 29.588 13.5419 29.2368 13.7777L19.0745 3.64914C19.4592 2.90183 19.926 2.35767 19.4592 1.24247C19.179 0.572482 18.2948 -0.0480372 17.4015 0.00431313C16.4046 0.062907 15.9526 0.666616 15.3875 1.2319L7.9876 8.67717C7.81008 8.92259 7.55197 9.49652 7.55197 9.911L7.55053 9.91004Z" fill="black"/>
<path fill-rule="evenodd" clip-rule="evenodd" d="M9.30612 37.7698C9.30612 36.2468 9.56759 34.7815 11.4132 34.7815H35.9071C38.0718 34.7815 38.0142 36.6834 38.0142 38.0335H9.56951C9.36705 38.0335 9.30612 37.9725 9.30612 37.7698ZM13.9593 32.4968C13.9593 31.5584 14.7841 30.6511 15.7153 30.6511H31.6055C32.5142 30.6511 33.3615 31.4993 33.3615 32.4089V33.8152H13.9593V32.4968ZM12.9936 32.3211V33.8152C11.3206 33.8152 10.15 33.614 9.06719 34.8944C8.32644 35.7704 8.34035 36.814 8.34035 38.1218C8.34035 38.6458 8.5193 39.0008 9.04272 39.0008H38.2776C39.1868 39.0008 38.98 37.9778 38.98 36.9793C38.98 35.1677 37.7144 33.8152 35.9071 33.8152H34.3268V32.4089C34.3268 31.0171 32.9954 29.6843 31.6051 29.6843H15.7148C14.2381 29.6843 12.9931 31.1977 12.9931 32.3211H12.9936Z" fill="black"/>
</svg>
