<svg width="39" height="39" viewBox="0 0 39 39" fill="none" xmlns="http://www.w3.org/2000/svg">
<path fill-rule="evenodd" clip-rule="evenodd" d="M13.3304 20.4144L13.9221 19.7873L16.5515 21.764C18.3004 23.0701 18.1624 22.0113 18.5544 19.849L19.0435 16.8342C19.6676 16.8342 19.5895 16.789 20.1097 16.9106L20.1067 21.3316C20.0993 22.4491 20.8175 22.5218 21.3951 22.0809L24.6041 19.805C24.8215 19.9503 24.9906 20.1952 25.1372 20.4144C23.5147 22.8375 21.4049 24.3714 21.4049 27.5749C21.4049 30.9218 21.0868 34.4104 23.257 37.0728C23.4219 37.2755 23.6386 37.5155 23.7663 37.706H15.235C15.3626 37.5155 15.5794 37.2755 15.7442 37.0728C16.3042 36.3852 16.6596 35.7276 16.9759 34.8769C17.7539 32.7849 17.5963 30.1249 17.5963 27.8038C17.5963 26.8366 17.4235 26.0275 17.1512 25.3545C16.8208 24.5381 16.543 24.212 16.041 23.5702C15.9073 23.3993 15.8487 23.3626 15.7106 23.2155L13.331 20.4157L13.3304 20.4144ZM39.0006 19.9247V20.4193C38.9536 21.1961 38.6837 21.9533 38.1811 22.5657C37.9228 22.8802 37.736 23.0768 37.4129 23.3211C36.8255 23.7657 35.9248 24.0807 35.1169 24.0722C34.2712 24.063 34.4818 24.0563 34.0318 24.51C32.7043 25.8486 31.1868 25.2129 30.6214 25.2129C30.5218 25.5854 29.924 26.0385 29.5802 26.2284C28.7638 26.679 27.6664 26.8299 26.7883 26.4562C25.2971 25.8217 26.5948 25.9829 25.1036 26.4739C24.0862 26.8085 23.704 26.6302 22.8521 26.4317C22.8442 26.7761 22.7758 26.7346 22.7758 27.1175V31.3828C22.7758 33.4181 23.301 35.0119 24.4398 36.4225C24.7207 36.7705 25.3662 37.154 25.3662 37.7054C25.3662 38.426 24.9589 39.0006 24.2236 39.0006H14.7782C14.0692 39.0006 13.6357 38.3967 13.6357 37.9344C13.6357 36.7455 14.6591 36.8475 15.4633 35.0394C15.8981 34.0617 16.2254 32.7946 16.2254 31.3834C16.2254 30.5621 16.2706 27.4704 16.1772 26.858C16.0605 26.0946 16.1741 26.6607 14.9309 26.6607C14.0186 26.6607 13.607 26.3584 13.0263 26.0513C12.7765 26.1179 12.4645 26.3597 12.1591 26.4794C10.5702 27.104 8.59848 26.0336 8.37926 25.2135C7.79243 25.2135 6.28231 25.8632 4.93156 24.4716C4.45709 23.983 4.67998 24.0746 3.80614 24.0734C1.66462 24.0698 0.138616 22.308 0 20.3973V19.827C0.0818263 18.726 0.643008 17.6281 1.82827 16.8348C1.76232 16.5875 1.59073 16.4001 1.47348 16.0465C1.11076 14.9516 1.32815 13.2858 2.28503 12.6452C1.52539 11.2096 1.96994 9.41796 3.1039 8.284C3.88553 7.50237 4.65372 7.16041 5.86524 7.16041C6.06308 6.31223 6.44535 5.45122 7.10606 4.89736C8.23453 3.95087 9.92113 3.54112 11.2737 4.18963C11.6456 3.48678 11.8642 3.07581 12.5121 2.60989C13.4415 1.94124 14.8741 1.67072 15.9964 2.20931C16.1222 1.66828 16.8116 1.00878 17.2354 0.705904C18.1392 0.0598431 18.7608 0 19.805 0C21.099 0 22.7807 1.24877 23.0042 2.2087C24.1265 1.67011 25.5591 1.94063 26.4885 2.60928C27.1364 3.0752 27.355 3.48617 27.7269 4.18902C29.4422 3.36587 31.93 4.19879 32.7995 6.12476C33.3387 7.31918 32.7751 7.1366 33.5873 7.1653C35.9352 7.24895 37.9692 10.2753 36.7156 12.6446C37.2352 12.9927 37.706 13.9612 37.706 14.8533C37.706 16.2083 37.3183 16.2883 37.173 16.8336C37.667 17.1646 38.117 17.5456 38.4376 18.0824C38.7722 18.643 38.9621 19.2811 39.0012 19.9241L39.0006 19.9247ZM3.27611 11.121C3.27611 10.3315 3.50571 9.74099 4.04491 9.22378C5.52022 7.80769 6.72991 8.99784 7.10362 8.1692C7.22941 7.89013 7.02973 6.61266 8.1808 5.7425C9.76969 4.54136 11.5149 5.86524 11.579 5.86524C12.6629 5.86524 12.1598 5.11475 12.7643 4.23176C13.2186 3.56799 13.9099 3.27488 14.7782 3.27488C15.7803 3.27488 16.5796 4.60487 17.0535 3.11245C17.2788 2.40349 17.7136 1.91254 18.356 1.59683C19.5082 1.03077 20.597 1.32937 21.4269 2.18672C21.662 2.42975 21.8134 2.74423 21.9282 3.05688C22.5132 4.6525 22.9034 3.27488 24.5283 3.27488C25.6379 3.27488 26.3414 4.11391 26.5899 5.17399C26.9502 6.70854 28.0298 5.2552 28.9464 5.2552C29.7091 5.2552 30.0895 5.21307 30.7655 5.72112C32.4032 6.95218 31.3364 8.24492 32.3299 8.50383C32.6707 8.59237 32.827 8.45437 33.136 8.45437C34.4977 8.45437 35.7257 9.57001 35.7257 11.1204C35.7257 11.9534 35.2769 12.2819 35.2281 12.7417C35.1487 13.4861 37.0008 13.8903 36.2094 15.7168C36.1141 15.9366 35.9382 16.2065 35.7837 16.3573C34.5887 17.5255 35.9291 17.542 36.7956 18.2009C38.4779 19.4802 37.7097 23.0408 34.6705 22.6866C33.8914 22.5957 33.9011 22.4644 33.4834 23.1214C32.9284 23.9946 31.7889 24.2169 31.0164 23.8273C29.7909 23.2087 30.0382 23.9366 29.4233 24.6218C28.8145 25.2996 28.5562 25.288 27.7281 25.288C26.789 25.288 26.5881 24.4502 26.0525 24.4502C25.2611 24.4502 25.4944 25.288 23.9195 25.288C23.657 25.288 23.6246 25.2318 23.3864 25.2117C23.4194 24.8184 23.8774 24.3287 24.1046 24.0258L25.7368 21.8495C26.392 20.9756 26.4336 21.0672 26.4336 20.1848C26.4336 19.7183 25.5109 18.5092 24.8337 18.5092C24.1394 18.5092 24.2017 18.4653 23.5983 18.8738C22.9639 19.3037 22.0644 20.0291 21.4818 20.3375C21.4818 16.7341 22.0858 15.4627 19.0442 15.4627C18.704 15.4627 18.243 15.7436 18.0726 15.9384C17.8314 16.2138 17.7325 16.6059 17.661 17.0504C17.5249 17.8998 17.3521 18.8005 17.2153 19.6517C17.1102 20.3051 17.2385 20.6098 16.6938 20.1793C16.3946 19.9424 16.1363 19.7556 15.8224 19.5217C14.5632 18.5819 14.0094 17.7929 12.6641 19.1376C12.1604 19.6414 11.6175 20.2703 12.1885 21.1747C12.655 21.9142 15.3846 24.6309 15.5397 25.2123C14.9278 25.3545 14.3672 25.3338 13.8183 24.9527C13.5117 24.7402 13.4452 24.4502 12.9493 24.4502C12.2941 24.4502 12.5793 25.288 10.8163 25.288C10.2203 25.288 9.87595 24.9534 9.57795 24.6218C9.4949 24.529 9.44422 24.4667 9.38254 24.3598C9.06318 23.8029 8.96975 23.3052 8.03424 23.8005C7.22575 24.2285 6.07896 24.0038 5.51778 23.1214C5.33031 22.8259 5.31932 22.6396 4.87416 22.6176C4.50655 22.5993 2.90911 23.0701 1.96627 21.8739C1.65057 21.4733 1.23533 20.699 1.32143 19.9876C1.62798 17.4559 3.65593 18.047 3.65593 17.0614C3.65593 16.8825 3.6144 16.7805 3.53013 16.6535C3.52952 16.6523 1.56264 14.9712 3.33351 13.4635C3.56738 13.2644 3.77928 13.1777 3.77622 12.796C3.77317 12.4217 3.27488 11.921 3.27488 11.1198L3.27611 11.121Z" fill="black"/>
<path fill-rule="evenodd" clip-rule="evenodd" d="M21.4043 8.45492C21.4043 9.12541 22.6256 9.57362 22.7746 8.4537C22.9767 6.92953 24.0221 7.32034 24.4276 7.0596C24.7457 6.85503 24.805 6.36469 24.5552 6.06791C24.0905 5.51589 22.8015 6.04959 22.4119 6.41537C21.8348 6.95701 21.4049 7.59086 21.4049 8.45492H21.4043Z" fill="black"/>
<path fill-rule="evenodd" clip-rule="evenodd" d="M8.45508 10.8927C8.45508 12.0871 9.2538 11.4063 10.0006 12.0896C10.6601 12.6929 10.0257 13.6351 11.1211 13.6351C12.4603 13.6351 11.5504 10.3596 9.0645 10.3596C8.8349 10.3596 8.45508 10.6704 8.45508 10.8927Z" fill="black"/>
<path fill-rule="evenodd" clip-rule="evenodd" d="M27.2697 11.6542C27.2697 12.0701 27.5041 12.2697 27.8681 12.3503C28.5514 12.5012 29.0497 12.5201 29.2274 13.5808C29.2726 13.8513 29.2726 13.9514 29.4008 14.0925C29.6872 14.4082 30.5445 14.5578 30.5445 13.4819C30.5445 11.1498 27.269 10.3853 27.269 11.6536L27.2697 11.6542Z" fill="black"/>
<path fill-rule="evenodd" clip-rule="evenodd" d="M5.86525 19.1956C5.86525 19.449 5.79625 20.186 6.47468 20.186C6.88503 20.186 7.08837 19.9112 7.15432 19.5705C7.30027 18.8115 7.37599 18.3956 8.45805 18.2081C9.55476 18.0182 9.07663 16.9105 8.60766 16.9105H8.15089C7.08043 16.9105 5.86586 18.1251 5.86586 19.1956H5.86525Z" fill="black"/>
<path fill-rule="evenodd" clip-rule="evenodd" d="M20.795 12.3399C20.795 13.0916 21.5455 12.9964 21.816 13.0709C23.0477 13.4086 22.3992 14.6213 23.1735 14.9199C24.5719 15.4585 24.5151 12.1867 21.7403 11.692C21.2225 11.5998 20.7944 11.8392 20.7944 12.3399H20.795Z" fill="black"/>
<path fill-rule="evenodd" clip-rule="evenodd" d="M29.25 19.3476C29.25 20.2288 29.9052 20.3368 30.3027 20.0199C30.4945 19.8667 30.4975 19.8471 30.5495 19.5809C30.8981 17.7776 31.7726 18.5342 32.2873 18.0433C32.7801 17.5731 32.4345 16.9105 31.9161 16.9105C30.3553 16.9105 29.25 18.042 29.25 19.3482V19.3476Z" fill="black"/>
<path fill-rule="evenodd" clip-rule="evenodd" d="M14.9294 10.4353C15.6054 10.4353 15.5956 9.78617 15.6353 9.5413C15.8454 8.23452 17.1161 8.68213 17.4612 8.1643C17.7329 7.75639 17.4099 7.15979 17.0624 7.15979C16.02 7.15979 15.2659 7.43397 14.6839 8.36154C14.2284 9.0882 14.0074 10.4353 14.9294 10.4353Z" fill="black"/>
</svg>
