<svg width="37" height="40" viewBox="0 0 37 40" fill="none" xmlns="http://www.w3.org/2000/svg">
<path fill-rule="evenodd" clip-rule="evenodd" d="M20.9441 36.7688C20.9441 35.9216 21.6714 35.1967 22.5215 35.1967H33.6511C35.5249 35.1967 35.3162 37.2491 35.3162 38.3409H20.9445V36.7688H20.9441ZM24.0989 32.0526H32.0737V33.5373H24.0989V32.0526ZM28.7435 30.3931H27.2538L26.666 25.1273C26.5044 23.8589 26.1145 20.6238 26.1145 19.476C26.1145 18.8754 26.4163 18.4883 26.7464 18.1846C28.1818 16.8631 30.1455 18.2532 30.1455 19.389C30.1455 20.7758 29.2769 27.0735 29.0964 29.1732C29.0319 29.9215 29.0826 30.3935 28.7435 30.3935V30.3931ZM24.4494 19.2142C24.4494 20.6779 24.5483 21.0441 24.6965 22.3739L25.4288 29.0674C25.4658 29.3996 25.5807 30.0446 25.5883 30.3931C22.0675 30.3931 22.4335 29.9204 22.4335 33.5373C20.8706 33.5719 19.2787 35.0071 19.2787 36.7688H3.24189C2.20913 36.7688 1.66449 36.226 1.66449 35.1967V9.60734H8.93802C9.47578 9.60734 9.72654 9.19166 9.72654 8.64669V1.65995H25.9387C27.5864 1.65995 27.253 3.43499 27.253 4.28007V16.1578C25.9101 16.2691 24.4486 17.9282 24.4486 19.2146L24.4494 19.2142ZM8.04042 2.86076L8.06217 8.03527H2.89184L8.04042 2.86076ZM0.000110554 9.08332V35.0223C0.000110554 37.1769 1.25029 38.4283 3.41764 38.4283H19.279C19.279 39.0108 19.1297 40.0003 20.1552 40.0003H36.1043C37.2056 40.0003 36.9805 38.4333 36.9805 37.3802C36.9805 36.0516 36.7312 35.5091 36.1438 34.7204C35.6688 34.0819 34.7327 33.6196 33.738 33.5373C33.738 32.9258 33.7341 32.313 33.7395 31.7019C33.7536 30.0616 33.3362 30.3931 30.6709 30.3931C30.6709 28.431 31.8102 21.267 31.8102 19.5634C31.8102 18.7465 31.3975 17.8942 30.9242 17.3023C30.5517 16.8364 29.7059 16.1748 28.9181 16.1575V2.79503C28.9181 1.29411 27.5755 0.00012207 25.851 0.00012207H9.02535C8.3064 0.00012207 8.06579 0.476113 7.68892 0.851706L0.853497 7.66401C0.458511 8.05766 -0.000976562 8.32852 -0.000976562 9.08332H0.000110554Z" fill="black"/>
<path fill-rule="evenodd" clip-rule="evenodd" d="M6.48438 31.092C6.48438 31.7605 6.68984 31.9652 7.36059 31.9652C8.03497 31.9652 8.83182 30.5824 9.63919 30.0439C9.63919 31.4744 9.52033 31.9652 10.6908 31.9652C11.0202 31.9652 12.4668 30.2335 12.8817 29.9565C12.8817 32.4026 12.5084 31.9652 17.0881 31.9652C17.861 31.9652 17.861 30.3932 17.0881 30.3932H14.5468C14.5468 29.0508 14.853 27.1616 13.6706 27.1616C12.9922 27.1616 12.1203 28.6257 11.3046 29.1703C11.3046 28.2252 11.4829 27.1616 10.5161 27.1616C9.92075 27.1616 8.90973 28.3697 8.34733 28.9302C7.94184 29.3343 6.4851 30.577 6.4851 31.0916L6.48438 31.092Z" fill="black"/>
</svg>
