<svg width="200" height="200" viewBox="0 0 200 200" fill="none" xmlns="http://www.w3.org/2000/svg">
<g clip-path="url(#clip0_2124_899)">
<path fill-rule="evenodd" clip-rule="evenodd" d="M95.4768 0.631552C89 2.16446 84.8589 6.09961 80.1943 10.1944C75.7328 14.1113 71.2194 18.7618 65.6396 20.6559C52.7293 25.039 37.1249 18.3656 27.0052 32.0596C19.0729 42.7941 26.1487 60.5548 17.0646 72.1769L11.3337 78.9833C5.06533 86.4644 -2.10708 92.6352 0.58135 104.546C2.30273 112.172 9.94956 119.386 15.8414 126.376C29.2668 142.303 15.3558 160.506 31.9272 172.881C42.8573 181.044 60.8016 173.984 72.0003 182.846C83.0283 191.571 90.3617 202.377 104.27 199.537C110.608 198.242 114.87 194.217 119.459 190.139C134.682 176.613 132.698 178.973 156.201 176.981C164.55 176.273 169.113 172.931 172.732 168.352C180.895 158.028 174.137 139.315 182.633 128.19C183.63 126.886 184.423 126.225 185.443 124.973C193.222 115.44 202.302 108.122 199.469 95.4729C197.944 88.6581 191.71 82.2801 187.169 77.12C183.993 73.5124 180.949 70.4844 179.411 65.9095C174.76 52.0672 181.917 37.9616 168.091 27.1585C157.714 19.0502 139.315 26.0386 127.993 17.2093C126.813 16.2896 125.892 15.3544 124.708 14.4501C123.521 13.5443 122.33 12.4314 121.191 11.4893C113.547 5.16727 107.545 -2.22707 95.4768 0.630152V0.631552Z" fill="url(#paint0_linear_2124_899)"/>
<path d="M136.353 105.772C136.139 105.772 135.924 105.743 135.712 105.68L120.792 101.325C119.897 101.062 119.246 100.279 119.156 99.3439C119.065 98.4144 119.552 97.5212 120.382 97.0915C120.382 97.0901 131.99 91.0872 135.459 89.2352C136.58 88.6374 137.963 89.063 138.559 90.1801C139.152 91.2972 138.73 92.6831 137.613 93.2781C135.663 94.3182 131.153 96.6659 127.564 98.5278L136.996 101.283C138.208 101.637 138.905 102.91 138.549 104.123C138.261 105.123 137.345 105.772 136.353 105.772Z" fill="#FEFEFE"/>
<path d="M63.6439 105.772C62.6545 105.772 61.7434 105.123 61.4481 104.123C61.0927 102.91 61.791 101.637 63.0044 101.283L72.4342 98.5278C68.8459 96.6659 64.3353 94.3182 62.383 93.2781C61.2676 92.6817 60.8463 91.2958 61.4397 90.1801C62.0317 89.063 63.4144 88.6374 64.5354 89.2352C68.0118 91.0872 79.6136 97.0915 79.6136 97.0915C80.4463 97.5212 80.9347 98.4144 80.8423 99.3439C80.7514 100.279 80.102 101.062 79.2035 101.325L64.2891 105.68C64.0736 105.743 63.8609 105.772 63.6439 105.772Z" fill="#FEFEFE"/>
<path d="M145.463 76.7882L145.11 76.7616C133.691 74.9977 127.959 65.7359 127.723 65.3439C127.066 64.2618 127.408 62.8548 128.491 62.1983C129.571 61.5361 130.976 61.8847 131.631 62.9626C131.682 63.0396 136.553 70.805 145.811 72.2343C147.061 72.4275 147.917 73.5978 147.724 74.8479C147.548 75.9818 146.575 76.7896 145.464 76.7896L145.463 76.7882Z" fill="#FEFEFE"/>
<path d="M54.5388 76.7883C53.429 76.7883 52.4536 75.9806 52.2773 74.8467C52.0855 73.5965 52.9392 72.4262 54.189 72.233C63.5194 70.7925 68.3155 63.0454 68.3672 62.9656C69.018 61.8835 70.4231 61.5349 71.5105 62.1956C72.5895 62.8536 72.9366 64.2591 72.2816 65.3413C72.0381 65.7346 66.303 74.9951 54.8929 76.7589L54.5416 76.7855L54.5388 76.7883Z" fill="#FEFEFE"/>
<path d="M75.2807 138.138C74.4284 138.138 73.572 137.823 72.91 137.189L66.7312 131.28C65.3583 129.968 65.3107 127.793 66.6193 126.421C67.9334 125.045 70.1068 125.004 71.4783 126.312L75.2807 129.95L85.2647 120.404C86.59 119.133 88.6823 119.133 90.009 120.404L99.9832 129.949L109.969 120.403C111.298 119.133 113.389 119.131 114.716 120.403L124.709 129.954L128.523 126.312C129.896 125.004 132.068 125.052 133.377 126.424C134.691 127.795 134.637 129.972 133.267 131.283L127.08 137.189C125.753 138.457 123.663 138.457 122.337 137.189L112.345 127.639L102.358 137.189C101.031 138.457 98.9364 138.457 97.6097 137.187L87.6341 127.64L77.6557 137.187C76.9867 137.823 76.1386 138.138 75.2807 138.138Z" fill="#FEFEFE"/>
</g>
<defs>
<linearGradient id="paint0_linear_2124_899" x1="25.246" y1="33.5785" x2="174.792" y2="166.377" gradientUnits="userSpaceOnUse">
<stop stop-color="#F75B62"/>
<stop offset="1" stop-color="#F03E47"/>
</linearGradient>
<clipPath id="clip0_2124_899">
<rect width="200" height="200" fill="white"/>
</clipPath>
</defs>
</svg>
