<svg width="193" height="193" viewBox="0 0 193 193" fill="none" xmlns="http://www.w3.org/2000/svg">
<g clip-path="url(#clip0_2124_319)">
<path fill-rule="evenodd" clip-rule="evenodd" d="M92.1361 0.609185C85.8857 2.08872 81.8894 5.88528 77.3877 9.83689C73.0814 13.616 68.7271 18.1048 63.3424 19.9327C50.8842 24.1616 35.8247 17.7226 26.0606 30.938C18.4053 41.2969 25.2342 58.4366 16.4677 69.6515L10.9378 76.2194C4.88827 83.439 -2.03235 89.3943 0.561248 100.888C2.22263 108.247 9.6028 115.209 15.2878 121.954C28.2426 137.324 14.8184 154.889 30.81 166.831C41.3579 174.709 58.6737 167.896 69.4803 176.447C80.1221 184.867 87.1999 195.295 100.621 192.553C106.737 191.304 110.849 187.42 115.279 183.485C129.969 170.432 128.054 172.71 150.735 170.787C158.792 170.104 163.195 166.879 166.688 162.46C174.566 152.497 168.043 134.44 176.243 123.704C177.205 122.445 177.97 121.808 178.956 120.6C186.463 111.399 195.224 104.339 192.492 92.1317C191.019 85.5552 185.004 79.4001 180.622 74.421C177.557 70.9389 174.62 68.0181 173.136 63.6024C168.647 50.244 175.553 36.6334 162.212 26.2078C152.198 18.3832 134.444 25.1269 123.517 16.6078C122.378 15.7201 121.489 14.8182 120.347 13.9457C119.202 13.0711 118.052 11.9978 116.952 11.0882C109.575 4.98773 103.783 -2.14788 92.1382 0.609185H92.1361Z" fill="url(#paint0_linear_2124_319)"/>
<path d="M108.243 67.5071C103.947 68.9386 98.6297 69.1722 96.5065 69.2115C94.3878 69.1722 89.0434 68.9386 84.7535 67.5071C76.5754 64.7828 63.4208 63.0608 53.3924 63.2967C45.9675 63.4801 38.2773 64.4781 33.4886 65.4401C31.3633 65.8703 30.0119 67.958 30.502 70.0687L31.0129 72.2667C31.313 73.5464 32.302 74.492 33.5399 74.932C34.1784 75.1602 34.793 75.5773 35.0714 76.3264C35.9304 78.6391 40.5838 92.372 43.1043 97.4461C45.1685 101.601 50.7617 105.163 63.7624 105.212C82.2625 105.287 88.6712 93.0489 91.613 85.1424C91.9208 84.317 92.3891 82.7348 92.8105 81.2007C93.4141 79.0048 94.7447 76.8429 95.344 76.5317C95.6933 76.3548 96.1092 76.2041 96.5076 76.2041C96.9202 76.2041 97.3318 76.3548 97.6865 76.5317C98.2771 76.8429 99.5804 79.0048 100.194 81.2007C100.613 82.7348 101.074 84.317 101.384 85.1424C104.323 93.0489 110.732 105.286 129.232 105.212C142.232 105.163 147.829 101.6 149.89 97.4461C152.409 92.372 157.058 78.6391 157.93 76.3264C158.206 75.5773 158.818 75.1602 159.46 74.932C160.698 74.492 161.687 73.5464 161.986 72.2667L162.499 70.0676C162.987 67.9569 161.633 65.8714 159.508 65.4412C154.722 64.4792 147.03 63.4812 139.606 63.2978C129.568 63.0619 116.419 64.7838 108.244 67.5082L108.243 67.5071Z" fill="black"/>
<path d="M105.178 79.7713C105.567 88.7347 114.294 97.3521 122.461 99.3295C134.467 102.238 143.498 99.6484 148.619 88.6081C150.161 85.2756 153.462 78.021 153.25 74.1491C152.88 67.4262 144.346 68.6054 138.898 68.47C138.314 68.458 104.643 67.5092 105.178 79.7702V79.7713Z" fill="black"/>
<path d="M88.157 79.7713C87.7684 88.7347 79.0424 97.3521 70.873 99.3295C58.8678 102.238 49.8371 99.6484 44.7155 88.6081C43.1752 85.2756 39.8721 78.021 40.0839 74.1491C40.4528 67.4262 48.9879 68.6054 54.436 68.47C55.0189 68.458 88.6897 67.5092 88.157 79.7702V79.7713Z" fill="black"/>
<path d="M110.841 129.725C109.059 129.725 107.239 129.593 105.392 129.317C103.596 129.045 102.359 127.37 102.628 125.573C102.9 123.779 104.56 122.544 106.369 122.808C116.772 124.364 126.022 120.433 129.92 112.774C130.746 111.156 132.727 110.514 134.345 111.34C135.964 112.164 136.606 114.145 135.783 115.763C131.3 124.56 121.839 129.725 110.842 129.725H110.841Z" fill="black"/>
</g>
<defs>
<linearGradient id="paint0_linear_2124_319" x1="29.1181" y1="27.421" x2="163.923" y2="165.538" gradientUnits="userSpaceOnUse">
<stop stop-color="#29DB89"/>
<stop offset="1" stop-color="#14B56A"/>
</linearGradient>
<clipPath id="clip0_2124_319">
<rect width="193" height="193" fill="white"/>
</clipPath>
</defs>
</svg>
