<svg width="46" height="46" viewBox="0 0 46 46" fill="none" xmlns="http://www.w3.org/2000/svg">
<path d="M29.4659 9.86036L29.4659 9.86033L28.7291 8.53863L29.1658 8.29518L28.7291 8.53862C27.2971 5.96964 26.2496 4.09308 25.2991 2.85185C24.3488 1.61094 23.59 1.13208 22.7654 1.13208C21.9407 1.13208 21.1819 1.61095 20.2316 2.85186C19.2811 4.0931 18.2335 5.96967 16.8015 8.53865L16.0647 9.86032C16.0445 9.89657 16.0246 9.93244 16.0048 9.96794C15.2535 11.3161 14.8007 12.1288 14.0855 12.6717C13.3675 13.2168 12.4813 13.4171 11.0233 13.7468C10.9844 13.7555 10.9451 13.7644 10.9054 13.7734L9.47472 14.0971C6.69267 14.7266 4.66446 15.187 3.24407 15.7467C1.8331 16.3028 1.15079 16.9077 0.888776 17.7503L0.411329 17.6018L0.888774 17.7503C0.625071 18.5982 0.839931 19.5169 1.67263 20.8397C2.50873 22.1678 3.89283 23.7884 5.7886 26.0052L5.40861 26.3301L5.78861 26.0052L6.76397 27.1457C6.78935 27.1754 6.81448 27.2048 6.83936 27.2339C7.83837 28.4017 8.43758 29.1022 8.7094 29.9764C8.98061 30.8485 8.89029 31.7792 8.73901 33.3382L8.72764 33.4554L8.58019 34.977C8.29364 37.9341 8.08525 40.0973 8.15607 41.6873C8.22686 43.2764 8.5725 44.1451 9.25213 44.661C9.92359 45.1708 10.8032 45.2462 12.2608 44.8286C13.7248 44.4091 15.6249 43.5359 18.2298 42.3366C18.2298 42.3366 18.2298 42.3366 18.2298 42.3366L19.5693 41.7197L19.5694 41.7196C19.6081 41.7018 19.6465 41.6841 19.6845 41.6666C21.0449 41.0399 21.875 40.6576 22.7654 40.6576C23.6557 40.6576 24.4858 41.0399 25.8462 41.6666C25.8842 41.6841 25.9226 41.7018 25.9613 41.7196L25.9614 41.7197L27.3009 42.3366C29.9058 43.5359 31.8059 44.4091 33.2699 44.8286C34.7275 45.2462 35.6071 45.1708 36.2787 44.661C36.9583 44.1451 37.3039 43.2764 37.3746 41.6873C37.4454 40.0973 37.237 37.9341 36.9505 34.9771L36.803 33.4554C36.7992 33.4159 36.7954 33.3768 36.7916 33.3381C36.6405 31.7792 36.5502 30.8486 36.8212 29.9765L36.8212 29.9764C37.093 29.1024 37.6921 28.4021 38.6906 27.2348L38.7668 27.1458L39.7421 26.0052L40.1221 26.3301L39.7421 26.0052C41.6379 23.7884 43.022 22.1678 43.8581 20.8397C44.6908 19.5169 44.9057 18.5982 44.642 17.7503L45.1194 17.6018L44.642 17.7503C44.38 16.9077 43.6976 16.3028 42.2866 15.7467C40.8662 15.187 38.838 14.7266 36.0561 14.0971L34.6253 13.7734C34.5858 13.7645 34.5467 13.7556 34.508 13.7469C33.0496 13.4172 32.1634 13.2168 31.4453 12.6717L29.4659 9.86036ZM29.4659 9.86036C29.4866 9.89747 29.5071 9.93418 29.5273 9.97051M29.4659 9.86036L29.5273 9.97051M29.5273 9.97051C30.2777 11.317 30.7303 12.1291 31.4453 12.6717L29.5273 9.97051Z" fill="#F5D14F" stroke="#C19C13"/>
</svg>
